<?xml version="1.0" standalone="no"?>
<!DOCTYPE svg PUBLIC "-//W3C//DTD SVG 20010904//EN"
 "http://www.w3.org/TR/2001/REC-SVG-20010904/DTD/svg10.dtd">
<svg version="1.0" xmlns="http://www.w3.org/2000/svg"
 width="389.000000pt" height="389.000000pt" viewBox="0 0 389.000000 389.000000"
 preserveAspectRatio="xMidYMid meet">
<metadata>
Created by potrace 1.11, written by Peter Selinger 2001-2013
</metadata>
<g transform="translate(0.000000,389.000000) scale(0.100000,-0.100000)"
fill="#000000" stroke="none">
<path d="M1810 3515 c-136 -38 -283 -146 -366 -270 -76 -116 -134 -300 -134
-432 l0 -52 -237 -3 c-256 -3 -277 -7 -314 -58 -18 -24 -19 -82 -25 -1120 -7
-1007 -6 -1098 9 -1127 36 -68 -59 -63 1213 -63 1083 0 1153 1 1172 18 20 17
20 25 24 1154 l3 1137 -23 23 c-22 23 -28 23 -276 26 l-253 3 -6 112 c-7 133
-24 192 -84 310 -79 153 -214 275 -363 329 -74 27 -262 34 -340 13z m294 -316
c74 -36 151 -116 188 -194 26 -56 32 -83 36 -161 l5 -94 -309 0 c-170 0 -340
3 -377 7 l-69 6 7 71 c18 188 112 324 264 382 58 22 195 14 255 -17z m724
-938 c18 -65 32 -124 32 -130 0 -6 -13 -11 -29 -11 -68 0 -485 -70 -499 -84
-4 -4 -9 -54 -10 -110 -4 -126 -2 -130 128 -181 144 -57 340 -143 366 -160 13
-8 33 -34 44 -56 21 -40 21 -43 6 -205 -26 -270 -37 -298 -143 -346 -107 -48
-403 -116 -584 -134 l-66 -6 -17 91 c-9 50 -19 111 -23 136 l-6 45 49 0 c68 0
369 37 429 53 67 18 76 36 73 162 l-3 100 -36 17 c-20 9 -115 44 -210 76 -96
33 -187 66 -202 73 -64 29 -97 163 -97 390 0 205 8 219 161 267 105 34 245 68
385 96 71 14 138 27 149 29 70 16 69 17 103 -112z m-1028 12 c6 -49 16 -103
22 -121 5 -18 8 -35 6 -37 -4 -4 -167 -22 -358 -40 -101 -9 -147 -18 -155 -28
-12 -17 -2 -344 12 -358 4 -4 104 -5 221 -1 l212 7 0 -60 c0 -33 -3 -89 -6
-126 l-7 -65 -204 4 c-119 3 -208 1 -214 -5 -5 -5 -14 -130 -20 -279 -6 -148
-12 -270 -13 -271 -4 -6 -232 -20 -238 -14 -8 7 -33 1349 -25 1357 19 19 601
120 703 123 l52 1 12 -87z"/>
</g>
</svg>
